<svg xmlns="http://www.w3.org/2000/svg" version="1.1" xmlns:xlink="http://www.w3.org/1999/xlink" width="50" height="50"><svg xmlns="http://www.w3.org/2000/svg" version="1.1" xmlns:xlink="http://www.w3.org/1999/xlink" width="50" height="50"><svg xmlns="http://www.w3.org/2000/svg" width="50" height="50" viewBox="2.9 1 20 20"><path fill="#076fe5" d="M18 11q-2.075 0-3.537-1.463T13 6t1.463-3.537T18 1t3.538 1.463T23 6t-1.463 3.538T18 11M3.6 20.4q-.275-.275-.438-.625T3 19V5q0-.825.588-1.412T5 3h6.7q-.35.675-.525 1.438T11 6q0 1.475.55 2.738t1.5 2.212zm8.4.6v-5.4q0-1.05.638-1.887T14.3 12.65q.875-.2 1.8-.3t1.9-.1q.8 0 1.538.063T21 12.5V19q0 .825-.587 1.413T19 21z"></path></svg></svg><style>@media (prefers-color-scheme: light) { :root { filter: none; } }
@media (prefers-color-scheme: dark) { :root { filter: none; } }
</style></svg>